HIERARCHY
ROOT Hips
{
	OFFSET 0.000000 0.000000 0.000000
	CHANNELS 6 Xposition Yposition Zposition Zrotation Yrotation Xrotation 
	JOINT LHipJoint
	{
		OFFSET 0.000000 0.000000 0.000000
		CHANNELS 3 Zrotation Yrotation Xrotation
		JOINT LeftUpLeg
		{
			OFFSET 1.363060 -1.794630 0.839290
			CHANNELS 3 Zrotation Yrotation Xrotation
			JOINT LeftLeg
			{
				OFFSET 2.448110 -6.726130 0.000000
				CHANNELS 3 Zrotation Yrotation Xrotation
				JOINT LeftFoot
				{
					OFFSET 2.562200 -7.039590 0.000000
					CHANNELS 3 Zrotation Yrotation Xrotation
					JOINT LeftToeBase
					{
						OFFSET 0.157640 -0.433110 2.322550
						CHANNELS 3 Zrotation Yrotation Xrotation
						End Site
						{
							OFFSET 0.000000 0.000000 0.000000
						}
					}
				}
			}
		}
	}
	JOINT RHipJoint
	{
		OFFSET 0.000000 0.000000 0.000000
		CHANNELS 3 Zrotation Yrotation Xrotation
		JOINT RightUpLeg
		{
			OFFSET -1.305520 -1.794630 0.839290
			CHANNELS 3 Zrotation Yrotation Xrotation
			JOINT RightLeg
			{
				OFFSET -2.542530 -6.985550 0.000000
				CHANNELS 3 Zrotation Yrotation Xrotation
				JOINT RightFoot
				{
					OFFSET -2.568260 -7.056230 0.000000
					CHANNELS 3 Zrotation Yrotation Xrotation
					JOINT RightToeBase
					{
						OFFSET -0.164730 -0.452590 2.363150
						CHANNELS 3 Zrotation Yrotation Xrotation
						End Site
						{
							OFFSET 0.000000 0.000000 0.000000
						}
					}
				}
			}
		}
	}
	JOINT LowerBack
	{
		OFFSET 0.000000 0.000000 0.000000
		CHANNELS 3 Zrotation Yrotation Xrotation
		JOINT Spine
		{
			OFFSET 0.028270 2.035590 -0.193380
			CHANNELS 3 Zrotation Yrotation Xrotation
			JOINT Spine1
			{
				OFFSET 0.056720 2.048850 -0.042750
				CHANNELS 3 Zrotation Yrotation Xrotation
				JOINT Neck
				{
					OFFSET 0.000000 0.000000 0.000000
					CHANNELS 3 Zrotation Yrotation Xrotation
					JOINT Neck1
					{
						OFFSET -0.054170 1.746240 0.172020
						CHANNELS 3 Zrotation Yrotation Xrotation
						JOINT Head
						{
							OFFSET 0.104070 1.761360 -0.123970
							CHANNELS 3 Zrotation Yrotation Xrotation
							End Site
							{
								OFFSET 0.000000 0.000000 0.000000
							}
						}
					}
				}
				JOINT LeftShoulder
				{
					OFFSET 0.000000 0.000000 0.000000
					CHANNELS 3 Zrotation Yrotation Xrotation
					JOINT LeftArm
					{
						OFFSET 3.362410 1.200890 -0.311210
						CHANNELS 3 Zrotation Yrotation Xrotation
						JOINT LeftForeArm
						{
							OFFSET 4.983000 -0.000000 -0.000000
							CHANNELS 3 Zrotation Yrotation Xrotation
							JOINT LeftHand
							{
								OFFSET 3.483560 -0.000000 -0.000000
								CHANNELS 3 Zrotation Yrotation Xrotation
								JOINT LeftFingerBase
								{
									OFFSET 0.000000 0.000000 0.000000
									CHANNELS 3 Zrotation Yrotation Xrotation
									JOINT LeftHandIndex1
									{
										OFFSET 0.715260 -0.000000 -0.000000
										CHANNELS 3 Zrotation Yrotation Xrotation
										End Site
										{
											OFFSET 0.000000 0.000000 0.000000
										}
									}
								}
								JOINT LThumb
								{
									OFFSET 0.000000 0.000000 0.000000
									CHANNELS 3 Zrotation Yrotation Xrotation
									End Site
									{
										OFFSET 0.000000 0.000000 0.000000
									}
								}
							}
						}
					}
				}
				JOINT RightShoulder
				{
					OFFSET 0.000000 0.000000 0.000000
					CHANNELS 3 Zrotation Yrotation Xrotation
					JOINT RightArm
					{
						OFFSET -3.136600 1.374050 -0.404650
						CHANNELS 3 Zrotation Yrotation Xrotation
						JOINT RightForeArm
						{
							OFFSET -5.241900 -0.000000 -0.000000
							CHANNELS 3 Zrotation Yrotation Xrotation
							JOINT RightHand
							{
								OFFSET -3.444170 -0.000000 -0.000000
								CHANNELS 3 Zrotation Yrotation Xrotation
								JOINT RightFingerBase
								{
									OFFSET 0.000000 0.000000 0.000000
									CHANNELS 3 Zrotation Yrotation Xrotation
									JOINT RightHandIndex1
									{
										OFFSET -0.622530 -0.000000 -0.000000
										CHANNELS 3 Zrotation Yrotation Xrotation
										End Site
										{
											OFFSET 0.000000 0.000000 0.000000
										}
									}
								}
								JOINT RThumb
								{
									OFFSET 0.000000 0.000000 0.000000
									CHANNELS 3 Zrotation Yrotation Xrotation
									End Site
									{
										OFFSET 0.000000 0.000000 0.000000
									}
								}
							}
						}
					}
				}
			}
		}
	}
}
MOTION
Frames: 5
Frame Time: 0.008333
-5.668285 15.861445 -1.023568 -9.270445 70.603046 23.221607 -8.325754 -1.097738 0.113268 -12.184906 -0.427989 -73.774746 -2.227412 3.465834 40.218236 0.814653 2.874521 -0.851258 0.787199 -0.000000 -17.003500 10.895361 0.129055 -4.349600 8.053058 -5.525843 -33.075076 1.348765 -3.899051 57.482254 1.249326 14.645266 -11.269078 -1.166000 0.000001 -69.910300 0.256107 0.084181 7.843311 -0.537548 0.320267 -1.542915 -4.941632 0.327425 -0.736430 8.752610 -10.559658 -9.129575 -1.060192 -0.028592 -0.808776 0.000000 0.000000 0.000000 4.403317 12.637952 2.833886 -73.772519 23.741843 10.144591 -0.763328 -73.809869 -0.003612 1.280218 2.155964 0.024542 -0.062643 0.122639 0.000000 0.000000 0.000000 0.000000 0.000000 0.000000 0.000000 2.471557 -3.540138 -0.039927 69.234556 -5.444253 18.127636 179.753713 82.106707 179.978012 -3.720585 3.084924 -0.114272 0.052159 -0.411284 0.000000 0.000000 0.000000 0.000000 0.000000 0.000000 0.000000 
-5.542031 15.862039 -1.016146 -9.414495 70.410971 22.960267 -8.325498 -1.108903 -0.001851 -12.267741 -0.200041 -73.666417 -2.186557 3.565690 41.466946 0.897741 3.091649 -2.233355 0.713100 0.000000 -17.688701 10.954788 0.106654 -4.329846 7.918463 -5.544755 -33.058534 1.161608 -3.945686 58.183655 1.221745 14.230183 -10.030057 -0.855800 0.000000 -70.908400 0.050210 0.036591 7.897722 -0.586178 0.276307 -1.535653 -4.976859 0.286044 -0.766575 8.846891 -10.548619 -9.031178 -1.061895 -0.030209 -0.780686 0.000000 0.000000 0.000000 4.451223 12.253228 2.806449 -73.757508 23.256622 9.893144 -0.773004 -73.593828 -0.004153 1.464884 2.157390 0.027854 -0.065286 0.125361 0.000000 0.000000 0.000000 0.000000 0.000000 0.000000 0.000000 2.555883 -3.592590 -0.009106 69.533724 -5.541003 18.188611 179.769731 82.607057 179.977855 -3.765879 3.127769 -0.117071 0.052352 -0.409541 0.000000 0.000000 0.000000 0.000000 0.000000 0.000000 0.000000 
-5.417772 15.864558 -1.008964 -9.580564 70.201190 22.673747 -8.325731 -1.118294 -0.112698 -12.337512 0.037973 -73.454096 -2.157089 3.642260 42.527724 0.990912 3.353401 -3.610820 0.633300 0.000000 -18.546701 11.010240 0.087166 -4.318204 7.823393 -5.578362 -33.058837 0.975707 -3.990690 58.884083 1.179868 13.720847 -8.798511 -0.551500 0.000000 -71.733700 -0.147626 -0.013640 7.958906 -0.631805 0.229606 -1.524597 -5.007623 0.242035 -0.788732 8.911172 -10.525532 -8.916544 -1.063745 -0.032111 -0.748082 0.000000 0.000000 0.000000 4.495401 11.887875 2.771221 -73.717559 22.766697 9.667956 -0.780638 -73.433483 -0.004631 1.617628 2.158708 0.030665 -0.067550 0.128174 0.000000 0.000000 0.000000 0.000000 0.000000 0.000000 0.000000 2.615483 -3.643787 0.015960 69.855981 -5.595630 18.275127 179.788015 83.197253 179.977764 -3.807620 3.174817 -0.119872 0.052499 -0.407196 0.000000 0.000000 0.000000 0.000000 0.000000 0.000000 0.000000 
-5.295369 15.868429 -1.002150 -9.772747 69.967876 22.361088 -8.328234 -1.127641 -0.216479 -12.376804 0.280378 -73.163297 -2.132260 3.700190 43.432078 1.089502 3.645620 -4.913841 0.548900 0.000000 -19.429599 11.061962 0.071015 -4.312671 7.767469 -5.623042 -33.081022 0.789955 -4.033831 59.585743 1.124154 13.122100 -7.556105 -0.256400 0.000000 -72.436400 -0.336412 -0.066140 8.021443 -0.674192 0.180418 -1.510890 -5.033832 0.195625 -0.802387 8.946570 -10.490299 -8.787402 -1.065684 -0.034277 -0.711303 0.000000 0.000000 0.000000 4.533029 11.548011 2.728429 -73.652011 22.281287 9.464116 -0.786030 -73.337186 -0.005032 1.735659 2.157610 0.032675 -0.069426 0.131073 0.000000 0.000000 0.000000 0.000000 0.000000 0.000000 0.000000 2.650660 -3.692047 0.035308 70.193448 -5.611992 18.389417 179.807928 83.867257 179.977820 -3.832143 3.226271 -0.122276 0.052368 -0.404243 0.000000 0.000000 0.000000 0.000000 0.000000 0.000000 0.000000 
-5.174748 15.873176 -0.995644 -9.988000 69.709151 22.029117 -8.334132 -1.138389 -0.311725 -12.375783 0.521091 -72.821335 -2.106460 3.744489 44.216772 1.188518 3.953674 -6.091803 0.462600 0.000000 -20.204000 11.110282 0.058717 -4.311162 7.748053 -5.673949 -33.129442 0.604055 -4.074888 60.290288 1.055160 12.443679 -6.292088 0.024100 0.000000 -73.015300 -0.517615 -0.120252 8.081111 -0.713831 0.129376 -1.495446 -5.056089 0.147434 -0.807291 8.957575 -10.445025 -8.646728 -1.067967 -0.036681 -0.671142 0.000000 0.000000 0.000000 4.566014 11.237699 2.678673 -73.560263 21.802895 9.280445 -0.789122 -73.307646 -0.005348 1.817774 2.153684 0.034084 -0.070917 0.134044 0.000000 0.000000 0.000000 0.000000 0.000000 0.000000 0.000000 2.666930 -3.737429 0.049582 70.537154 -5.596645 18.529330 179.828839 84.602922 179.978085 -3.828517 3.281989 -0.123883 0.051794 -0.400726 0.000000 0.000000 0.000000 0.000000 0.000000 0.000000 0.000000 
